<?xml version="1.0" ?><!DOCTYPE svg  PUBLIC '-//W3C//DTD SVG 1.1//EN'  'http://www.w3.org/Graphics/SVG/1.1/DTD/svg11.dtd'><svg height="20" style="enable-background:new 0 0 512 512;" version="1.1" viewBox="0 0 512 512" width="20" xml:space="preserve" xmlns="http://www.w3.org/2000/svg" xmlns:xlink="http://www.w3.org/1999/xlink"><style type="text/css">
<![CDATA[
	.st0{display:inline;}
	.st1{fill:none;stroke:#000000;stroke-width:16;stroke-linecap:round;stroke-linejoin:round;stroke-miterlimit:10;}
	.st2{display:none;}
]]>
</style><g class="st2" id="layer"><g class="st0"><path class="st1" d="M43.906,255.937C161.103,89.354,351,89.354,468,255.937v0.126c-117,166.583-306.788,166.583-423.985,0"/><g><circle class="st1" cx="255.813" cy="256" r="85.5"/><path class="st1" d="M256.313,211.5c23.748,0,43,19.252,43,43"/></g></g></g><g id="layer_copy"><g><g><path d="M256.08,389c-40.34,0-79.631-10.86-116.784-32.281c-38.137-21.987-72.319-54.197-101.604-95.739     c-2.2-2.709-2.437-6.65-0.329-9.646c29.332-41.693,63.597-74.01,101.841-96.054c37.16-21.418,76.468-32.28,116.82-32.28     c0.032,0,0.057,0,0.089,0c40.357,0.016,79.648,10.893,116.782,32.329c38.188,22.044,72.389,54.347,101.651,96.01     c0.945,1.347,1.453,2.953,1.453,4.598v0.126c0,1.646-0.508,3.251-1.453,4.598c-29.264,41.664-63.458,73.967-101.633,96.01     C335.79,378.106,296.511,388.983,256.168,389C256.139,389,256.109,389,256.08,389z M53.747,255.925     C108.498,331.474,180.171,373,256.08,373c0.029,0,0.055,0,0.083,0c75.853-0.03,147.426-41.529,202.057-117     c-54.631-75.471-126.224-116.97-202.112-117c-0.023,0-0.059,0-0.082,0C180.125,139,108.488,180.461,53.747,255.925z"/></g><g><g><path d="M255.813,349.5c-51.556,0-93.5-41.944-93.5-93.5c0-51.556,41.944-93.5,93.5-93.5c51.556,0,93.5,41.944,93.5,93.5      C349.313,307.556,307.368,349.5,255.813,349.5z M255.813,178.5c-42.733,0-77.5,34.767-77.5,77.5s34.767,77.5,77.5,77.5      s77.5-34.767,77.5-77.5S298.546,178.5,255.813,178.5z"/></g><g><path d="M299.313,262.5c-4.418,0-8-3.582-8-8c0-19.299-15.701-35-35-35c-4.418,0-8-3.582-8-8s3.582-8,8-8      c28.121,0,51,22.878,51,51C307.313,258.918,303.73,262.5,299.313,262.5z"/></g></g></g></g></svg>